<?xml version="1.0" encoding="UTF-8" standalone="no"?>
<!-- Created with Inkscape (http://www.inkscape.org/) -->

<svg
   xmlns:dc="http://purl.org/dc/elements/1.1/"
   xmlns:cc="http://creativecommons.org/ns#"
   xmlns:rdf="http://www.w3.org/1999/02/22-rdf-syntax-ns#"
   xmlns:svg="http://www.w3.org/2000/svg"
   xmlns="http://www.w3.org/2000/svg"
   xmlns:sodipodi="http://sodipodi.sourceforge.net/DTD/sodipodi-0.dtd"
   xmlns:inkscape="http://www.inkscape.org/namespaces/inkscape"
   width="126.98666"
   height="50.439999"
   id="svg2"
   version="1.1"
   inkscape:version="0.48.4 r9939"
   sodipodi:docname="debile.svg"
   inkscape:export-filename="/home/tag/dev/local/debile/resources/debile.png"
   inkscape:export-xdpi="90"
   inkscape:export-ydpi="90">
  <defs
     id="defs4" />
  <sodipodi:namedview
     id="base"
     pagecolor="#ffffff"
     bordercolor="#666666"
     borderopacity="1.0"
     inkscape:pageopacity="0.0"
     inkscape:pageshadow="2"
     inkscape:zoom="7.9195959"
     inkscape:cx="63.393765"
     inkscape:cy="21.583024"
     inkscape:document-units="px"
     inkscape:current-layer="text2985"
     showgrid="false"
     inkscape:window-width="1332"
     inkscape:window-height="694"
     inkscape:window-x="15"
     inkscape:window-y="55"
     inkscape:window-maximized="0"
     fit-margin-top="10"
     fit-margin-left="10"
     fit-margin-right="10"
     fit-margin-bottom="10" />
  <metadata
     id="metadata7">
    <rdf:RDF>
      <cc:Work
         rdf:about="">
        <dc:format>image/svg+xml</dc:format>
        <dc:type
           rdf:resource="http://purl.org/dc/dcmitype/StillImage" />
        <dc:title></dc:title>
      </cc:Work>
    </rdf:RDF>
  </metadata>
  <g
     inkscape:label="Layer 1"
     inkscape:groupmode="layer"
     id="layer1"
     transform="translate(-308.74331,-500.96108)">
    <g
       style="font-size:40px;font-style:normal;font-variant:normal;font-weight:normal;font-stretch:normal;line-height:125%;letter-spacing:0px;word-spacing:0px;fill:#204a87;fill-opacity:1;stroke:none;font-family:Helvetica CY;-inkscape-font-specification:Helvetica CY"
       id="text2985">
      <g
         id="g3059">
        <path
           id="path3047"
           style="font-weight:bold;fill:#204a87;font-family:Helvetica;-inkscape-font-specification:Helvetica"
           d="m 339.38331,541.04108 0,-29.16 -5.6,0 0,10.36 c -1.4,-2.16 -3.28,-3.16 -5.96,-3.16 -5.15999,0 -9.08,4.68 -9.08,11.2 0,6.11999 3.36001,11.12 9.08,11.12 2.68,0 4.56,-1.00001 5.96,-2.84 l 0,2.48 5.6,0 m -5.6,-10.68 c 0,3.91999 -1.92,6.36 -4.72,6.36 -2.79999,0 -4.72,-2.48001 -4.72,-6.44 0,-4 1.92001,-6.52 4.72,-6.52 2.84,0 4.72,2.48 4.72,6.6" />
        <path
           id="path3049"
           style="font-weight:bold;fill:#204a87;font-family:Helvetica;-inkscape-font-specification:Helvetica"
           d="m 360.35787,531.04108 c 0,-7.44 -3.76001,-11.96 -10.12,-11.96 -6.2,0 -10,4.2 -10,11.44 0,6.91999 3.76,10.88 9.88,10.88 4.83999,0 8.76,-2.20001 10,-6.44 l -5.52,0 c -0.48,1.56 -2.24001,2.16 -4.28,2.16 -2.64,0 -4.32,-1.20001 -4.48,-5.4 l 14.48,0 0.04,-0.68 m -5.84,-3.04 -8.6,0 c 0.36,-3 1.76,-4.64 4.24,-4.64 2.39999,0 4.08,1.56 4.36,4.64 m 2.76,-17.04 -6.24,0 -2.8,6.16 4,0 5.04,-6.16" />
        <path
           id="path3051"
           style="font-weight:bold;fill:#204a87;font-family:Helvetica;-inkscape-font-specification:Helvetica"
           d="m 382.12349,530.52108 c 0,-6.12 -3.40001,-11.44 -9.08,-11.44 -2.68,0 -4.6,1 -5.96,3.16 l 0,-10.36 -5.6,0 0,29.16 5.6,0 0,-2.48 c 1.36,1.83999 3.24,2.84 5.96,2.84 5.15999,0 9.08,-4.36001 9.08,-10.88 m -5.6,-0.24 c 0,3.91999 -1.96,6.44 -4.72,6.44 -2.84,0 -4.72,-2.44001 -4.72,-6.56 0,-3.92 1.92,-6.4 4.72,-6.4 2.76,0 4.72,2.52 4.72,6.52" />
        <path
           id="path3053"
           style="font-weight:bold;fill:#204a87;font-family:Helvetica;-inkscape-font-specification:Helvetica"
           d="m 389.17804,541.04108 0,-21.6 -5.6,0 0,21.6 5.6,0 m 0.08,-24.2 0,-5.6 -5.6,0 0,5.6 5.6,0" />
        <path
           id="path3055"
           style="font-weight:bold;fill:#204a87;font-family:Helvetica;-inkscape-font-specification:Helvetica"
           d="m 397.08814,541.04108 0,-29.16 -5.6,0 0,29.16 5.6,0" />
        <path
           id="path3057"
           style="font-weight:bold;fill:#204a87;font-family:Helvetica;-inkscape-font-specification:Helvetica"
           d="m 418.75904,531.04108 c 0,-7.44 -3.76001,-11.96 -10.12,-11.96 -6.19999,0 -10,4.2 -10,11.44 0,6.91999 3.76001,10.88 9.88,10.88 4.84,0 8.76,-2.20001 10,-6.44 l -5.52,0 c -0.48,1.56 -2.24,2.16 -4.28,2.16 -2.64,0 -4.32,-1.20001 -4.48,-5.4 l 14.48,0 0.04,-0.68 m -5.84,-3.04 -8.6,0 c 0.36,-3 1.76,-4.64 4.24,-4.64 2.4,0 4.08,1.56 4.36,4.64" />
      </g>
    </g>
  </g>
</svg>
